<?xml version="1.0" encoding="UTF-8"?>
<svg xmlns="http://www.w3.org/2000/svg" xmlns:xlink="http://www.w3.org/1999/xlink" width="500pt" height="500pt" viewBox="0 0 500 500" version="1.1">
<g id="surface1">
<path style="fill-rule:nonzero;fill:rgb(83.5%,38.8%,36.1%);fill-opacity:1;stroke-width:10;stroke-linecap:butt;stroke-linejoin:miter;stroke:rgb(79.6%,23.5%,20%);stroke-opacity:1;stroke-miterlimit:10;" d="M 234.425781 357.5 C 234.425781 418.25 185.175781 467.5 124.425781 467.5 C 63.675781 467.5 14.425781 418.25 14.425781 357.5 C 14.425781 296.75 63.675781 247.5 124.425781 247.5 C 185.175781 247.5 234.425781 296.75 234.425781 357.5 "/>
<path style="fill-rule:nonzero;fill:rgb(100%,100%,100%);fill-opacity:1;stroke-width:1;stroke-linecap:butt;stroke-linejoin:miter;stroke:rgb(0%,0%,0%);stroke-opacity:1;stroke-miterlimit:10;" d="M 66.726562 309.800781 C 66.726562 304.277344 71.203125 299.800781 76.726562 299.800781 L 123.769531 299.800781 C 126.421875 299.800781 128.964844 300.855469 130.839844 302.730469 L 189.242188 361.132812 C 193.148438 365.039062 193.148438 371.371094 189.242188 375.277344 L 142.203125 422.316406 C 138.296875 426.222656 131.964844 426.222656 128.0625 422.316406 L 69.65625 363.914062 C 67.78125 362.039062 66.726562 359.492188 66.726562 356.839844 L 66.726562 309.800781 M 86.230469 339.695312 C 91.859375 345.328125 100.992188 345.328125 106.625 339.695312 C 112.253906 334.066406 112.253906 324.933594 106.625 319.304688 C 100.992188 313.671875 91.859375 313.671875 86.230469 319.304688 C 80.597656 324.933594 80.597656 334.066406 86.230469 339.695312 "/>
<path style="fill-rule:nonzero;fill:rgb(37.6%,67.8%,31.8%);fill-opacity:1;stroke-width:10;stroke-linecap:butt;stroke-linejoin:miter;stroke:rgb(22%,59.6%,14.9%);stroke-opacity:1;stroke-miterlimit:10;" d="M 360 140 C 360 200.75 310.75 250 250 250 C 189.25 250 140 200.75 140 140 C 140 79.25 189.25 30 250 30 C 310.75 30 360 79.25 360 140 "/>
<path style="fill-rule:nonzero;fill:rgb(100%,100%,100%);fill-opacity:1;stroke-width:1;stroke-linecap:butt;stroke-linejoin:miter;stroke:rgb(0%,0%,0%);stroke-opacity:1;stroke-miterlimit:10;" d="M 192.300781 92.300781 C 192.300781 86.777344 196.777344 82.300781 202.300781 82.300781 L 249.339844 82.300781 C 251.992188 82.300781 254.539062 83.355469 256.414062 85.230469 L 314.816406 143.632812 C 318.722656 147.539062 318.722656 153.871094 314.816406 157.777344 L 267.777344 204.816406 C 263.871094 208.722656 257.539062 208.722656 253.632812 204.816406 L 195.230469 146.414062 C 193.355469 144.539062 192.300781 141.992188 192.300781 139.339844 L 192.300781 92.300781 M 211.804688 122.195312 C 217.433594 127.828125 226.566406 127.828125 232.195312 122.195312 C 237.828125 116.566406 237.828125 107.433594 232.195312 101.804688 C 226.566406 96.171875 217.433594 96.171875 211.804688 101.804688 C 206.171875 107.433594 206.171875 116.566406 211.804688 122.195312 "/>
<path style="fill-rule:nonzero;fill:rgb(66.7%,47.5%,75.7%);fill-opacity:1;stroke-width:10;stroke-linecap:butt;stroke-linejoin:miter;stroke:rgb(58.4%,34.5%,69.8%);stroke-opacity:1;stroke-miterlimit:10;" d="M 485.574219 357.5 C 485.574219 418.25 436.324219 467.5 375.574219 467.5 C 314.824219 467.5 265.574219 418.25 265.574219 357.5 C 265.574219 296.75 314.824219 247.5 375.574219 247.5 C 436.324219 247.5 485.574219 296.75 485.574219 357.5 "/>
<path style="fill-rule:nonzero;fill:rgb(100%,100%,100%);fill-opacity:1;stroke-width:1;stroke-linecap:butt;stroke-linejoin:miter;stroke:rgb(0%,0%,0%);stroke-opacity:1;stroke-miterlimit:10;" d="M 317.875 309.800781 C 317.875 304.277344 322.351562 299.800781 327.875 299.800781 L 374.914062 299.800781 C 377.566406 299.800781 380.109375 300.855469 381.988281 302.730469 L 440.390625 361.132812 C 444.296875 365.039062 444.296875 371.371094 440.390625 375.277344 L 393.351562 422.316406 C 389.445312 426.222656 383.113281 426.222656 379.207031 422.316406 L 320.804688 363.914062 C 318.929688 362.039062 317.875 359.492188 317.875 356.839844 L 317.875 309.800781 M 337.375 339.695312 C 343.007812 345.328125 352.140625 345.328125 357.769531 339.695312 C 363.402344 334.066406 363.402344 324.933594 357.769531 319.304688 C 352.140625 313.671875 343.007812 313.671875 337.375 319.304688 C 331.746094 324.933594 331.746094 334.066406 337.375 339.695312 "/>
</g>
</svg>
